<?xml version="1.0" encoding="utf-8"?>
<!-- Generator: Adobe Illustrator 19.2.1, SVG Export Plug-In . SVG Version: 6.00 Build 0)  -->
<svg version="1.1" id="Layer_1" xmlns="http://www.w3.org/2000/svg" xmlns:xlink="http://www.w3.org/1999/xlink" x="0px" y="0px"
	 viewBox="0 0 374 293.7" style="enable-background:new 0 0 374 293.7;" xml:space="preserve">
<style type="text/css">
	.st0{fill:#C65954;}
	.st1{clip-path:url(#SVGID_2_);}
	.st2{fill:#253D47;}
	.st3{fill:#E8E8E8;stroke:#ADADAD;stroke-miterlimit:10;}
	.st4{fill:#FEC777;}
	.st5{fill:#666666;}
	.st6{fill:#1B2D33;}
	.st7{fill:#476468;}
	.st8{fill:#808080;}
	.st9{fill:#58C2EF;}
	.st10{fill:#2D4C56;}
	.st11{fill:#316172;}
	.st12{fill:#3D8899;}
	.st13{fill:#A6D5DD;}
	.st14{fill:#B3B3B3;}
	.st15{fill:#999999;}
	.st16{fill:none;stroke:#999999;stroke-miterlimit:10;}
	.st17{fill:#DB594C;}
	.st18{fill:#BA4742;}
	.st19{fill:#E6E6E6;}
	.st20{fill:#F2F2F2;}
	.st21{fill:#CCCCCC;}
	.st22{fill:#1F333A;}
	.st23{fill:#939995;}
	.st24{fill:#A8ADAA;}
	.st25{fill:#B8BCC1;}
	.st26{fill:#CDCFD3;}
</style>
<g>
	<path class="st0" d="M364.4,133.1h-47.1c-3.2,0-5.8-2.6-5.8-5.8v-0.5c0-3.2,2.6-5.8,5.8-5.8h11.9c3.2,0,5.8-2.6,5.8-5.8v-0.5
		c0-3.2-2.6-5.8-5.8-5.8h-67c-2-0.9-3.4-2.9-3.4-5.3v-0.5c0-3.2,2.6-5.8,5.8-5.8h11.9c3.2,0,5.8-2.6,5.8-5.8v-0.5
		c0-3.2-2.6-5.8-5.8-5.8H170.5c-3.2,0-5.8,2.6-5.8,5.8v0.5c0,3.2,2.6,5.8,5.8,5.8h43.7c3.2,0,5.8,2.6,5.8,5.8v0.5
		c0,3.2-2.6,5.8-5.8,5.8h-8.5c-3.2,0-5.8,2.6-5.8,5.8v0.5c0,3.2,2.6,5.8,5.8,5.8h63.6c2,0.9,3.4,2.9,3.4,5.3v0.5
		c0,3.2-2.6,5.8-5.8,5.8h-8.5c-3.2,0-5.8,2.6-5.8,5.8v0.5c0,3.2,2.6,5.8,5.8,5.8h105.8c3.2,0,5.8-2.6,5.8-5.8v-0.5
		C370.2,135.7,367.6,133.1,364.4,133.1z"/>
	<path class="st0" d="M328.8,37.4h-26.9c-1.8,0-3.3-1.5-3.3-3.3v-0.3c0-1.8,1.5-3.3,3.3-3.3h6.8c1.8,0,3.3-1.5,3.3-3.3V27
		c0-1.8-1.5-3.3-3.3-3.3h-38.3c-1.2-0.5-2-1.7-2-3v-0.3c0-1.8,1.5-3.3,3.3-3.3h6.8c1.8,0,3.3-1.5,3.3-3.3v-0.3
		c0-1.8-1.5-3.3-3.3-3.3H218c-1.8,0-3.3,1.5-3.3,3.3v0.3c0,1.8,1.5,3.3,3.3,3.3h25c1.8,0,3.3,1.5,3.3,3.3v0.3c0,1.8-1.5,3.3-3.3,3.3
		h-4.8c-1.8,0-3.3,1.5-3.3,3.3v0.3c0,1.8,1.5,3.3,3.3,3.3h36.3c1.2,0.5,2,1.7,2,3v0.3c0,1.8-1.5,3.3-3.3,3.3h-4.8
		c-1.8,0-3.3,1.5-3.3,3.3V41c0,1.8,1.5,3.3,3.3,3.3h60.5c1.8,0,3.3-1.5,3.3-3.3v-0.3C332.1,38.9,330.6,37.4,328.8,37.4z"/>
	<path class="st0" d="M132.1,201h22.1c1.5,0,2.7,1.2,2.7,2.7v0.2c0,1.5-1.2,2.7-2.7,2.7h-5.6c-1.5,0-2.7,1.2-2.7,2.7v0.2
		c0,1.5,1.2,2.7,2.7,2.7h31.4c0.9,0.4,1.6,1.4,1.6,2.5v0.2c0,1.5-1.2,2.7-2.7,2.7h-5.6c-1.5,0-2.7,1.2-2.7,2.7v0.2
		c0,1.5,1.2,2.7,2.7,2.7h49.5c1.5,0,2.7-1.2,2.7-2.7v-0.2c0-1.5-1.2-2.7-2.7-2.7h-20.4c-1.5,0-2.7-1.2-2.7-2.7v-0.2
		c0-1.5,1.2-2.7,2.7-2.7h4c1.5,0,2.7-1.2,2.7-2.7v-0.2c0-1.5-1.2-2.7-2.7-2.7h-29.7c-0.9-0.4-1.6-1.4-1.6-2.5v-0.2
		c0-1.5,1.2-2.7,2.7-2.7h4c1.5,0,2.7-1.2,2.7-2.7v-0.2c0-1.5-1.2-2.7-2.7-2.7h-49.5c-1.5,0-2.7,1.2-2.7,2.7v0.2
		C129.4,199.8,130.6,201,132.1,201z"/>
	<path class="st0" d="M178.7,37.6h-47.1c-3.2,0-5.8-2.6-5.8-5.8v-0.5c0-3.2,2.6-5.8,5.8-5.8h11.9c3.2,0,5.8-2.6,5.8-5.8v-0.5
		c0-3.2-2.6-5.8-5.8-5.8H37.7c-3.2,0-5.8,2.6-5.8,5.8v0.5c0,3.2,2.6,5.8,5.8,5.8h43.7c3.2,0,5.8,2.6,5.8,5.8v0.5
		c0,3.2-2.6,5.8-5.8,5.8h-8.5c-3.2,0-5.8,2.6-5.8,5.8v0.5c0,3.2,2.6,5.8,5.8,5.8h105.8c3.2,0,5.8-2.6,5.8-5.8v-0.5
		C184.5,40.2,181.9,37.6,178.7,37.6z"/>
	<path class="st0" d="M136.2,146.9h-31.4c-2.1,0-3.8-1.7-3.8-3.8v-0.3c0-2.1,1.7-3.8,3.8-3.8h7.9c2.1,0,3.8-1.7,3.8-3.8v-0.3
		c0-2.1-1.7-3.8-3.8-3.8H42.2c-2.1,0-3.8,1.7-3.8,3.8v0.3c0,2.1,1.7,3.8,3.8,3.8h29.1c2.1,0,3.8,1.7,3.8,3.8v0.3
		c0,2.1-1.7,3.8-3.8,3.8h-5.6c-2.1,0-3.8,1.7-3.8,3.8v0.3c0,2.1,1.7,3.8,3.8,3.8h70.5c2.1,0,3.8-1.7,3.8-3.8v-0.3
		C140.1,148.6,138.3,146.9,136.2,146.9z"/>
</g>
<g>
	<g>
		<defs>
			<rect id="SVGID_1_" x="72.7" y="-7" width="256.7" height="266.7"/>
		</defs>
		<clipPath id="SVGID_2_">
			<use xlink:href="#SVGID_1_"  style="overflow:visible;"/>
		</clipPath>
		<g class="st1">
			<path class="st2" d="M33.6,250.3l-0.3-5c17.6-1.2,34.7-2.6,50.8-7.1c22.4-6.4,41-17.5,54-32.1c12.5-14.1,16.8-29.9,19.5-44.8
				c4.2-22.2,16.5-37.4,35.7-43.7c9.7-3.2,20-4,30.9-2.3c5.7,0.9,10.1,3.6,14.4,6.2c3.1,1.9,6,3.6,9.3,4.8l-1.6,4.7
				c-3.9-1.3-7.2-3.3-10.3-5.2c-4-2.5-7.8-4.8-12.6-5.5c-10-1.5-19.6-0.8-28.5,2.1c-22,7.2-29.7,25.7-32.4,39.9
				c-2.9,15.6-7.4,32.1-20.7,47.2c-13.6,15.4-33.1,27-56.4,33.6C68.8,247.7,51.4,249.1,33.6,250.3z"/>
		</g>
	</g>
	<g>
		<g>
			
				<ellipse transform="matrix(0.2655 -0.9641 0.9641 0.2655 119.1205 314.2123)" class="st3" cx="265.8" cy="78.9" rx="36.3" ry="36.3"/>
		</g>
		<g>
			<path class="st3" d="M284.2,122.8c-0.4-3.2-3-5.5-6.1-5.8l0-0.1l-20.9-5.7l-0.8-0.2l-20.9-5.7l0,0.1c-2.8-1.4-6.2-0.7-8.2,1.8
				l-29.6,37.3l10.5,8.3l21.8-27.5l-9.4,34.2l-12.1,43.8l13.5,3.7l11.6-35.3c0,0,0,0,0,0l0,0c0,0,0,0,0,0c0.9-3.4,4.4-5.3,7.7-4.4
				c3.3,0.9,5.3,4.4,4.4,7.8c0,0,0,0,0,0l0,0c0,0,0,0,0,0l-8.1,36.2l13.5,3.7l12.1-43.8l9.4-34.2l4.6,34.8l13.3-1.8L284.2,122.8z"/>
		</g>
		<g>
			<path class="st2" d="M230.6,184.8c-0.3,1.1-1.4,1.7-2.4,1.4l-13.1-3.6c-1-0.3-1.7-1.4-1.4-2.4l0,0c0.3-1,1.4-1.7,2.4-1.4
				l13.1,3.6C230.3,182.7,230.9,183.8,230.6,184.8L230.6,184.8z"/>
		</g>
		<g>
			<path class="st2" d="M222.4,138.4c-0.7,0.8-1.9,0.9-2.8,0.2l-10.4-8.8c-0.8-0.7-0.9-1.9-0.2-2.8l0,0c0.7-0.8,1.9-0.9,2.8-0.2
				l10.4,8.8C223,136.4,223.1,137.6,222.4,138.4L222.4,138.4z"/>
		</g>
		<g>
			<path class="st2" d="M272.6,152.3c0.2,1.1,1.2,1.8,2.3,1.6l13.4-2.3c1.1-0.2,1.8-1.2,1.6-2.3l0,0c-0.2-1.1-1.2-1.8-2.3-1.6
				l-13.4,2.3C273.2,150.2,272.4,151.2,272.6,152.3L272.6,152.3z"/>
		</g>
		<g>
			<path class="st2" d="M258.4,192.5c-0.3,1-1.4,1.7-2.4,1.4l-13.1-3.6c-1-0.3-1.7-1.4-1.4-2.4l0,0c0.3-1,1.4-1.7,2.4-1.4l13.1,3.6
				C258.1,190.4,258.7,191.5,258.4,192.5L258.4,192.5z"/>
		</g>
		<g>
			<g>
				<path class="st2" d="M196.8,146l-4.2,5.1c-2.3,2.8-2.2,6.7,0.3,8.7c2.5,2,6.3,1.4,8.6-1.4l4.2-5.1L196.8,146z"/>
			</g>
			<g>
				<path class="st2" d="M201.3,156l-0.1,3.2c-0.1,1.3,0.7,2.5,1.9,2.6c1.2,0.1,2.2-0.9,2.3-2.2l0.4-6.2L201.3,156z"/>
			</g>
		</g>
		<g>
			<g>
				<path class="st2" d="M290.7,171.8l1,6.5c0.5,3.6-1.6,6.9-4.7,7.3c-3.2,0.5-6.1-2-6.7-5.6l-1-6.5L290.7,171.8z"/>
			</g>
			<g>
				<path class="st2" d="M281.7,178.2l-1.5,2.8c-0.6,1.2-1.9,1.7-3,1.2c-1-0.5-1.4-1.9-0.8-3.1l2.8-5.6L281.7,178.2z"/>
			</g>
		</g>
		<g>
			<polygon class="st4" points="290.5,170 290.7,171.8 277.6,173.8 277.3,171.8 			"/>
		</g>
		<g>
			<polygon class="st4" points="197.9,144.5 196.8,146 207.1,154.4 208.4,152.8 			"/>
		</g>
		<g>
			<path class="st2" d="M222,207.8c1-3.7-1.1-7.5-4.8-8.5c-3.7-1-7.5,1.1-8.5,4.8c0,0.2-0.1,0.3-0.1,0.5l13.2,3.6
				C221.9,208.1,222,208,222,207.8z"/>
		</g>
		<g>
			<path class="st2" d="M250.9,215.7c1-3.7-1.1-7.5-4.8-8.5c-3.7-1-7.5,1.1-8.5,4.8c0,0.2-0.1,0.3-0.1,0.5l13.2,3.6
				C250.8,216.1,250.9,215.9,250.9,215.7z"/>
		</g>
		<g>
			
				<rect x="214" y="200.9" transform="matrix(0.2655 -0.9641 0.9641 0.2655 -42.5585 359.7672)" class="st5" width="1.7" height="13.8"/>
		</g>
		<g>
			
				<rect x="242.9" y="208.9" transform="matrix(0.2654 -0.9641 0.9641 0.2654 -28.9862 393.5031)" class="st5" width="1.7" height="13.8"/>
		</g>
		<g>
			<g>
				
					<ellipse transform="matrix(0.2655 -0.9641 0.9641 0.2655 117.4782 315.0677)" class="st2" cx="265.5" cy="80.4" rx="31.4" ry="31.4"/>
			</g>
		</g>
		<g>
			<path class="st6" d="M236.5,92.4c-2.5-5.3-3.3-11.4-2.5-17.3c0.9-5.9,3.4-11.5,7.3-16.1c7.8-9.3,21.2-13.3,32.9-10
				c5.8,1.6,11.2,5,15.2,9.4c4,4.5,6.9,10.1,7.8,16c1,5.9,0.3,12.1-2,17.6c-2.3,5.5-6.2,10.3-11.1,13.5c9.2-7.3,13.6-19.6,11.3-30.8
				c-1.2-5.5-3.8-10.8-7.6-14.9c-3.8-4.1-8.8-7.2-14.3-8.6c-5.4-1.5-11.2-1.5-16.7,0c-5.4,1.5-10.4,4.7-14.2,8.9
				C234.9,68.6,232.4,81.4,236.5,92.4z"/>
		</g>
		<g>
			<path class="st2" d="M280.6,114.9c0.4-1.4-0.5-2.8-1.9-3.2L238,100.4c-1.4-0.4-2.9,0.4-3.3,1.8l0,0c-0.4,1.4,0.5,2.8,1.9,3.2
				l40.7,11.2C278.7,117.1,280.2,116.3,280.6,114.9L280.6,114.9z"/>
		</g>
		<g>
			<path class="st7" d="M293.3,72.3c-1.1-4.2-2.4-5.9-4.5-9.3c-0.6-1-1.4-0.9-2.3-0.4c0,0,1.1,1.3,1.7,2.3c1.6,2.7,2.7,4.5,3.6,7.8
				c0.6,2.3,1.1,5.5,1.3,7.7c0.2,2.1,0.3,3.5,1.4,3.5C294.5,83.9,294.3,76.4,293.3,72.3z"/>
		</g>
		<g>
			<path class="st2" d="M242.3,164.1c-12.7-3.5-20.5-9-20.6-9.1l1-1.4c0.2,0.1,17.3,12.2,41.9,11.5l0,1.8
				C256.2,167.1,248.6,165.8,242.3,164.1z"/>
		</g>
		<g>
			
				<rect x="212.2" y="132.9" transform="matrix(0.2647 -0.9643 0.9643 0.2647 46.6802 328.7556)" class="st2" width="53.4" height="1.8"/>
		</g>
		<g>
			<g>
				
					<rect x="234.7" y="139.1" transform="matrix(0.2652 -0.9642 0.9642 0.2652 57.0963 354.8015)" class="st2" width="53.4" height="1.8"/>
			</g>
			<g>
				<path class="st2" d="M260.9,154.4c-0.3,1.3-1.7,2-2.9,1.6l-25.1-6.9c-1.3-0.3-2-1.7-1.7-2.9l6.9-25.1c0.3-1.3,1.7-2,2.9-1.6
					l25.1,6.9c1.3,0.3,2,1.7,1.7,2.9L260.9,154.4z"/>
			</g>
			<g>
				<path class="st8" d="M258.7,151.6c-0.2,0.7-0.9,1.1-1.6,0.9l-12.8-3.5c-0.7-0.2-1.1-0.9-0.9-1.6l0,0c0.2-0.7,0.9-1.1,1.6-0.9
					l12.8,3.5C258.4,150.2,258.8,150.9,258.7,151.6L258.7,151.6z"/>
			</g>
			<g>
				<path class="st8" d="M261.4,141.7c-0.2,0.7-0.9,1.1-1.6,0.9l-12.8-3.5c-0.7-0.2-1.1-0.9-0.9-1.6l0,0c0.2-0.7,0.9-1.1,1.6-0.9
					l12.8,3.5C261.2,140.3,261.6,141,261.4,141.7L261.4,141.7z"/>
			</g>
			<g>
				<path class="st8" d="M260,146.6c-0.2,0.7-0.9,1.1-1.6,0.9l-12.8-3.5c-0.7-0.2-1.1-0.9-0.9-1.6l0,0c0.2-0.7,0.9-1.1,1.6-0.9
					l12.8,3.5C259.8,145.2,260.2,145.9,260,146.6L260,146.6z"/>
			</g>
			<g>
				
					<ellipse transform="matrix(0.2655 -0.9641 0.9641 0.2655 56.3158 330.8399)" class="st8" cx="245.3" cy="128.5" rx="1.3" ry="1.3"/>
			</g>
			<g>
				<ellipse transform="matrix(0.265 -0.9643 0.9643 0.265 54.8668 327.0574)" class="st8" cx="242" cy="127.5" rx="1.3" ry="1.3"/>
			</g>
			<g>
				
					<ellipse transform="matrix(0.2658 -0.964 0.964 0.2658 52.0624 332.487)" class="st8" cx="244.3" cy="132.1" rx="1.3" ry="1.3"/>
			</g>
			<g>
				
					<ellipse transform="matrix(0.2654 -0.9641 0.9641 0.2654 50.5624 328.6576)" class="st8" cx="241" cy="131.1" rx="1.3" ry="1.3"/>
			</g>
			<g>
				
					<rect x="233.3" y="138.1" transform="matrix(0.2653 -0.9642 0.9642 0.2653 40.3046 335.0822)" class="st8" width="13.4" height="6"/>
			</g>
		</g>
		<g>
			<path class="st8" d="M251.4,130.6c0.2,0,0.4,0.1,0.6,0.1c0.1,0,0.1,0,0.1,0.1c0,0.1,0,0.1-0.1,0.2c0,0,0,0,0.1,0
				c0.4-0.2,0.7-0.2,1.1-0.1c0.6,0.3,0.9,0.8,0.9,1.5c-0.1,0.5-0.3,0.9-0.7,1.1c-0.4,0.2-0.8,0.2-1.2,0.1c-0.2-0.1-0.4-0.1-0.5-0.3
				c-0.1-0.1-0.1-0.1-0.2-0.2c0,0,0,0.1,0,0.1c-0.1,0.4-0.2,0.8-0.3,1.2c0,0.1,0,0.1-0.1,0.1c-0.2,0-0.4-0.1-0.6-0.1L251.4,130.6z
				 M253.3,132.4c0.1-0.4-0.1-0.8-0.6-0.9c-0.4-0.1-0.8,0.1-0.9,0.6c-0.1,0.4,0.1,0.8,0.6,0.9C252.8,133.1,253.2,132.9,253.3,132.4"
				/>
			<path class="st8" d="M255.7,130.5c-0.3,1.2-0.6,2.4-0.9,3.7c0,0.1,0,0.1-0.1,0.1c-0.2,0-0.3-0.1-0.5-0.1c-0.1,0-0.1,0-0.1-0.1
				c0-0.1,0-0.1,0-0.2c0.3-1.2,0.6-2.3,0.9-3.5L255.7,130.5z"/>
			<path class="st8" d="M258.8,135.8c0.1,0,0.2,0,0.3,0.1c0,0,0.1,0,0.1,0.1c0,0.2,0.1,0.5,0.4,0.6c0.2,0.1,0.4,0.1,0.6,0
				c0.4-0.1,0.5-0.6,0.2-0.9c-0.1-0.1-0.2-0.1-0.3-0.2c-0.2,0-0.4-0.1-0.5-0.2c-0.3-0.2-0.5-0.5-0.6-0.9c0-0.5,0.1-0.9,0.4-1.3
				c0.3-0.3,0.7-0.4,1.2-0.3c0.2,0,0.5,0.1,0.6,0.3c0,0,0.1,0,0.1,0c0.1-0.1,0.2-0.1,0.2-0.2c0,0,0.1,0,0.1,0
				c0.1,0.1,0.2,0.3,0.3,0.4c0,0,0,0.1,0,0.1c-0.1,0.1-0.2,0.1-0.3,0.2c0,0,0,0.1,0,0.1c0.2,0.5,0.1,0.9-0.2,1.3
				c-0.1,0.1-0.3,0.2-0.4,0.3c-0.1,0-0.1,0,0,0.1c0.3,0.3,0.4,0.7,0.2,1.1c-0.2,0.6-0.8,0.8-1.3,0.8c-0.4,0-0.7-0.2-1-0.5
				c-0.3-0.3-0.4-0.6-0.3-1.1c0,0,0-0.1,0.1,0C258.7,135.8,258.8,135.8,258.8,135.8 M260.1,134.9c0.3,0.1,0.6,0,0.7-0.3
				c0.1-0.2,0.2-0.4,0.2-0.7c0-0.3-0.2-0.5-0.5-0.5c-0.3-0.1-0.5,0-0.7,0.2c-0.1,0.1-0.2,0.3-0.2,0.5
				C259.6,134.5,259.8,134.8,260.1,134.9"/>
			<path class="st9" d="M257.4,132.1c0.4,0.1,0.8,0.2,1.2,0.3c0.2,0.1,0.3,0.2,0.3,0.4c-0.1,0.3-0.1,0.5-0.2,0.8
				c-0.2,0.8-0.9,1.3-1.7,1.2c-0.9-0.1-1.5-0.9-1.4-1.8c0-0.1,0.1-0.3,0.1-0.4c0-0.2,0.1-0.4,0.1-0.6c0-0.2,0.2-0.3,0.4-0.2
				C256.6,131.9,257,132,257.4,132.1 M257.2,132.7c-0.3-0.1-0.6-0.1-0.8-0.2c-0.1,0-0.1,0-0.1,0.1c0,0.1-0.1,0.3-0.1,0.4
				c-0.1,0.3,0,0.5,0.1,0.7c0.2,0.3,0.5,0.5,0.9,0.4c0.4,0,0.6-0.2,0.8-0.5c0.1-0.2,0.1-0.4,0.2-0.6c0-0.1,0-0.1-0.1-0.1
				C257.8,132.9,257.5,132.8,257.2,132.7"/>
			<path class="st9" d="M257.3,131.4c0,0.1-0.1,0.2-0.1,0.3c0,0.1,0,0.1-0.1,0.1c-0.2,0-0.3-0.1-0.5-0.1c-0.1,0-0.1,0-0.1-0.1
				c0.1-0.2,0.1-0.4,0.2-0.7c0-0.1,0-0.1,0.1-0.1c0.2,0,0.3,0.1,0.5,0.1c0,0,0.1,0,0.1,0.1C257.3,131.2,257.3,131.3,257.3,131.4"/>
			<path class="st9" d="M258.4,131.7c0,0.1-0.1,0.2-0.1,0.3c0,0.1,0,0.1-0.1,0.1c-0.2,0-0.3-0.1-0.5-0.1c-0.1,0-0.1,0-0.1-0.1
				c0.1-0.2,0.1-0.4,0.2-0.7c0-0.1,0-0.1,0.1-0.1c0.2,0,0.3,0.1,0.5,0.1c0,0,0.1,0,0.1,0.1C258.4,131.5,258.4,131.6,258.4,131.7"/>
		</g>
	</g>
	<g>
		<path class="st10" d="M277.4,92.9c1.3,1.7-0.3,6.6-3.7,8.1c-2.5,1.1-5.2,0-5.9-0.3c-2.8-1.3-2.5-3.2-4.9-3.9
			c-2.8-0.9-4.2,1.4-6.6,0.4c-2.3-1-1.9-3.6-4.1-4.4c-2.4-0.9-4.3,1.8-5.8,0.9c-1.7-1-1.7-5.9,0.9-8.5c2-2,5.1-2.2,7.4-1.5
			c3,0.9,3,3.3,6.3,4.1c2.4,0.6,3-0.5,5.3,0.3c2.5,0.9,2.3,2.4,4.9,3.7C274.4,93.2,276.4,91.6,277.4,92.9z M254.9,87.5
			c-0.2-0.1-3.4-1.3-5.4,0.3c-0.7,0.6-1.3,1.6-1.1,2c0.5,0.6,2.9-1.7,5.3-1c2.3,0.7,1.9,3.3,4.3,4.3c2.6,1.1,4.5-1.4,6.8-0.1
			c1.7,1,1.3,2.8,3.5,3.9c0.3,0.1,1.5,0.7,3.1,0.5c1.7-0.3,3.3-1.4,3.1-2c-0.2-0.6-2.3,0.3-4.8-0.6c-2.4-0.9-2.1-2.6-4.5-3.6
			c-2.5-1-3.7,0.7-6.2-0.3C256.9,90,257.2,88.5,254.9,87.5z"/>
		<path class="st10" d="M258.9,72.7c-1.8-0.6-4,2.7-5,2.1c-0.9-0.6,0.3-3.7,0.5-4.1c0.5-1.3,0.7-2,1.5-2.5c1.3-0.8,2.9-0.3,4.8,0.4
			c1.8,0.6,3.1,1.1,3.5,2.3c0.2,0.7-0.1,1.4-0.6,2.8c-0.6,1.5-1.3,3.1-2,3.1C260.4,76.7,260.6,73.2,258.9,72.7z"/>
		<path class="st10" d="M275.5,79.1c-1.8-0.7-4.2,2.5-5.1,1.8c-0.8-0.6,0.6-3.7,0.8-4.1c0.6-1.2,0.9-1.9,1.6-2.4
			c1.3-0.7,2.9-0.1,4.7,0.7c1.7,0.7,3.1,1.3,3.4,2.5c0.2,0.7-0.2,1.4-0.8,2.7c-0.7,1.4-1.5,3-2.2,2.9
			C276.8,83.3,277.2,79.8,275.5,79.1z"/>
	</g>
	<path class="st11" d="M268.3,75.2"/>
	<path class="st12" d="M254,54.7c0.3-1.6,0.3-13.2-1.2-18.3c-3,3.3-9.3,13.9-9.8,15.1c-0.1,0.4-0.3,0.7-0.3,1.1
		c-0.6,3.1,1.5,6.2,4.6,6.8C250.4,59.9,253.5,57.9,254,54.7z"/>
	<path class="st13" d="M252.2,54.5c1.1-1.8,0.2-4.2-0.1-4.2c-0.3,0-0.1,1.4-1.1,3.2c-0.9,1.8-2.1,2.5-1.9,2.8
		C249.3,56.5,251.2,56,252.2,54.5z"/>
</g>
<g>
	<g>
		<path class="st14" d="M226.7,256.3c-1.2-6.1-7-10-13.1-8.9l4.2,22C223.9,268.2,227.8,262.4,226.7,256.3z"/>
		<path class="st15" d="M217.8,269.4l-4.2-22c-6.1,1.2-10,7-8.9,13.1C205.9,266.6,211.7,270.5,217.8,269.4z"/>
		
			<ellipse transform="matrix(0.982 -0.1887 0.1887 0.982 -44.1162 45.2943)" class="st15" cx="215.8" cy="254.3" rx="1.2" ry="1.2"/>
		
			<ellipse transform="matrix(0.982 -0.1887 0.1887 0.982 -46.2878 44.6537)" class="st16" cx="211.3" cy="265.4" rx="1.2" ry="1.2"/>
		
			<ellipse transform="matrix(0.982 -0.1887 0.1887 0.982 -44.6521 46.3941)" class="st16" cx="221.3" cy="257.7" rx="1.2" ry="1.2"/>
		<ellipse transform="matrix(0.982 -0.1887 0.1887 0.982 -43.8949 44.37)" class="st15" cx="211" cy="252.7" rx="0.8" ry="0.8"/>
		
			<ellipse transform="matrix(0.982 -0.1887 0.1887 0.982 -43.7668 45.9706)" class="st15" cx="219.5" cy="252.8" rx="0.8" ry="0.8"/>
		<ellipse transform="matrix(0.982 -0.1887 0.1887 0.982 -45.7746 46.407)" class="st15" cx="220.8" cy="263.6" rx="0.8" ry="0.8"/>
		
			<ellipse transform="matrix(0.982 -0.1887 0.1887 0.982 -45.1686 44.5526)" class="st15" cx="211.4" cy="259.5" rx="1.7" ry="1.7"/>
		
			<ellipse transform="matrix(0.982 -0.1887 0.1887 0.982 -46.2498 45.6619)" class="st15" cx="216.6" cy="265.7" rx="1.3" ry="1.3"/>
	</g>
	<g>
		<path class="st4" d="M35.3,67.5c-17.4,3-31.1,8-30.6,11.3l8.3-1.4c-0.3-1.8,9.8-5.1,22.7-7.3c12.8-2.2,23.5-2.5,23.8-0.7l8.3-1.4
			C67.3,64.7,52.7,64.5,35.3,67.5z"/>
		<path class="st17" d="M17.6,75.6c1.8,10.7,11.9,17.8,22.6,16c1.8-0.3,3.5-0.9,5.1-1.6l-17-35.3C20.7,58.4,16.1,66.8,17.6,75.6z"/>
		<path class="st18" d="M33.6,53c-1.9,0.3-3.7,0.9-5.3,1.7l17,35.3c7.7-3.7,12.4-12.1,10.9-21C54.3,58.3,44.2,51.1,33.6,53z"/>
		<path class="st4" d="M36.9,76.7c-12.8,2.2-23.5,2.5-23.8,0.7l-8.3,1.4c0.6,3.3,15.1,3.5,32.6,0.5c17.4-3,31.1-8,30.6-11.3
			l-8.3,1.4C59.9,71.2,49.7,74.5,36.9,76.7z"/>
	</g>
</g>
<g>
	<g>
		<path class="st19" d="M49.7,194c13,20.4,9.8,40.1,8,50.2c-1.7,10.1,6.7,17,6.7,17l-0.9,0.7l3.4,3.9l36.2-18l-68.8-79l-0.8-0.9
			C36.9,173.4,49.7,194,49.7,194"/>
		<path class="st20" d="M76.6,170.5c18.5,15.7,38.4,15.2,48.6,14.8c10.2-0.3,15.9,9,15.9,9l0.9-0.7l3.4,3.9L122.7,231l-68.8-79
			l-0.8-0.9C58,155,76.6,170.5,76.6,170.5"/>
		<path class="st21" d="M13.9,136.1c0.1,0.3,0.3,0.7,0.4,1.1c9.4,21.8,25.8,39.3,25.8,39.3l63.8,73.2l10.2-8.9L19.1,131.6
			L13.9,136.1z"/>
		<path class="st19" d="M25.3,127.7c-0.4-0.2-0.7-0.4-1-0.6l-5.2,4.5l95.1,109.1l10.2-8.9l-63.8-73.2
			C60.7,158.6,45.6,140,25.3,127.7"/>
		<path class="st22" d="M19.8,132.4l-7.2-8.3c-1.5,1.3-2.6,2.9,1.7,13L19.8,132.4z"/>
		<path class="st2" d="M19.8,132.4l-7.2-8.3c1.3-1.2,3.2-2.2,12.7,3.5L19.8,132.4z"/>
		<path class="st23" d="M40.8,156.5l-1.1-1.3l-9.8,8.5c0.3,0.5,0.7,0.9,1,1.3L40.8,156.5z"/>
		<path class="st24" d="M50.7,147.8c-0.4-0.4-0.8-0.8-1.2-1.2l-9.8,8.5l1.1,1.3L50.7,147.8z"/>
		
			<rect x="43.3" y="176.5" transform="matrix(0.754 -0.6569 0.6569 0.754 -104.267 76.5557)" class="st23" width="13.6" height="2"/>
		
			<rect x="53.5" y="167.6" transform="matrix(0.754 -0.6569 0.6569 0.754 -95.8832 81.0766)" class="st24" width="13.6" height="2"/>
		
			<rect x="58.2" y="193.6" transform="matrix(0.754 -0.6568 0.6568 0.754 -111.8373 90.554)" class="st23" width="13.6" height="2"/>
		
			<rect x="68.4" y="184.7" transform="matrix(0.754 -0.6569 0.6569 0.754 -103.4726 95.1093)" class="st24" width="13.6" height="2"/>
		
			<rect x="73.1" y="210.7" transform="matrix(0.754 -0.6569 0.6569 0.754 -119.425 104.5818)" class="st23" width="13.6" height="2"/>
		
			<rect x="83.4" y="201.8" transform="matrix(0.754 -0.6569 0.6569 0.754 -111.0443 109.1065)" class="st24" width="13.6" height="2"/>
		
			<rect x="88.1" y="227.9" transform="matrix(0.754 -0.6569 0.6569 0.754 -127.0094 118.6052)" class="st23" width="13.6" height="2"/>
		
			<rect x="98.3" y="218.9" transform="matrix(0.754 -0.6569 0.6569 0.754 -118.6289 123.1296)" class="st24" width="13.6" height="2"/>
		<path class="st25" d="M105.5,258.4l13.6-11.9l-17-19.6c0,0-15,10.4-8.2,18.2L105.5,258.4z"/>
		<path class="st26" d="M132.8,234.6l-13.6,11.9l-17-19.6c0,0,12.3-13.4,19.1-5.6L132.8,234.6z"/>
		<path class="st25" d="M117.8,250.4l-7.4,6.5c-1.1,0.9-1.2,2.6-0.3,3.7l11.4-9.9C120.5,249.5,118.8,249.4,117.8,250.4z"/>
		<path class="st26" d="M134.1,239.5c-1-1.1-2.6-1.2-3.7-0.3l-7.4,6.5c-1.1,0.9-1.2,2.6-0.3,3.7c0,0,0,0,0,0L134.1,239.5
			C134.1,239.6,134.1,239.6,134.1,239.5z"/>
		
			<rect x="108.5" y="251.8" transform="matrix(0.754 -0.6568 0.6568 0.754 -138.1767 136.6689)" class="st15" width="9.8" height="2"/>
		
			<rect x="121.2" y="240.8" transform="matrix(0.7541 -0.6568 0.6568 0.7541 -127.7975 142.2688)" class="st25" width="9.8" height="2"/>
		<path class="st8" d="M117.1,249.6c0.1,0.1,0.1,0.3,0,0.4l-7,6.1c-0.1,0.1-0.3,0.1-0.4,0l0,0c-0.1-0.1-0.1-0.3,0-0.4l7-6.1
			C116.8,249.4,117,249.4,117.1,249.6L117.1,249.6z"/>
		<path class="st8" d="M129.7,238.5c0.1,0.1,0.1,0.3,0,0.4l-7,6.1c-0.1,0.1-0.3,0.1-0.4,0l0,0c-0.1-0.1-0.1-0.3,0-0.4l7-6.1
			C129.5,238.4,129.6,238.4,129.7,238.5L129.7,238.5z"/>
		<polygon class="st14" points="64.4,261.2 95,246.4 98.4,250.3 67,265.9 63.6,261.9 		"/>
		<polygon class="st19" points="141.2,194.3 122.3,222.6 125.7,226.5 145.5,197.6 142,193.6 		"/>
		
			<rect x="62.6" y="231.1" transform="matrix(0.754 -0.6568 0.6568 0.754 -134.5672 105.7758)" class="st21" width="22.7" height="2.9"/>
		
			<rect x="100.2" y="198.3" transform="matrix(0.754 -0.6569 0.6569 0.754 -103.7618 122.4474)" class="st19" width="22.7" height="2.9"/>
		<path class="st19" d="M28,157.9c0,0-5.6-7.7-5.9-9.6l6.6-5.7L36,151L28,157.9z"/>
		<path class="st19" d="M44,144c0,0-6.8-6.6-8.7-7.2l-6.6,5.7L36,151L44,144z"/>
	</g>
	<path class="st4" d="M129.2,247c0,0,22.8-4.6,22.9,21.5c0,0-3.5,0.8-4.8-1.5c0,0-1,20.5,10.2,22.4c0,0-13.2,8.2-26.8-16.5
		c0,0-2.2,3.3-0.5,5.3c0,0-12.3-1.2-12-20.6c0,0,2.4,5,7,5.8c0,0-4.2-5.5-2-8.5c0,0,10.9,2.9,13.3,15.6
		C136.4,270.6,142.8,254.4,129.2,247"/>
</g>
<g>
	<g>
		<path class="st4" d="M312.4,91.1c0.5,0.9,1.3,1.5,2.4,1.9c1.1,0.4,2.1,0.4,3.1,0c1-0.4,1.6-1.1,2-2.1c0.4-1,0.3-2-0.2-2.9
			c-0.5-0.9-1.3-1.5-2.4-1.9c-1.1-0.4-2.1-0.4-3.1,0s-1.6,1.1-2,2.1C311.8,89.3,311.9,90.2,312.4,91.1z M321.1,84.4
			c0.4-1,0.8-1.8,1.3-2.4c0.5-0.6,1.2-1.1,2.1-1.5l3.1-1.3c1.3-0.6,2.4-1.3,3.2-2.1c0.8-0.8,1.4-1.7,1.8-2.8
			c0.9-2.6,0.8-4.9-0.4-6.9s-3.3-3.5-6.3-4.6c-3-1.1-5.7-1.2-7.9-0.3c-2.2,0.9-3.8,2.7-4.8,5.4l6.9,2.5c0.4-1,0.9-1.7,1.7-2.1
			c0.7-0.4,1.5-0.5,2.3-0.2c1.8,0.6,2.3,2,1.6,4c-0.3,0.8-0.8,1.5-1.6,2c-0.8,0.5-1.8,1-3.1,1.5c-1.3,0.5-2.4,1.2-3.2,2.2
			c-0.9,1-1.6,2.5-2.3,4.5L321.1,84.4z"/>
	</g>
</g>
</svg>
