<?xml version="1.0" encoding="UTF-8"?>
<!-- Generator: Adobe Illustrator 19.1.1, SVG Export Plug-In . SVG Version: 6.00 Build 0)  -->
<svg version="1.1" id="Layer_1" xmlns="http://www.w3.org/2000/svg" xmlns:xlink="http://www.w3.org/1999/xlink" x="0px" y="0px" viewBox="-48 123 403 206" style="enable-background:new -48 123 403 206;" xml:space="preserve">
<style type="text/css">
.st0{fill:#EFEFEF;}
.st1{fill:#58C2EF;}
</style>
<g>
  <path class="st0" d="M-14.5,171.7c6.1,0,12.2,0.1,18.2,0c2.2,0,3,0.8,2.9,3c-0.1,2.3,0,4.6,0,6.8c1,0.3,1.2-0.4,1.6-0.8   c8.8-9.3,19.9-12.2,32.2-10.3c20.4,3.2,33.5,16.6,36.2,37.2c1.9,14.8-1.2,28.6-12.3,39.5c-9.4,9.3-21.1,12.2-33.9,11.2   c-6-0.4-11.7-1.9-16.9-4.9c-2.4-1.4-4.5-3.2-6.4-5.3c-0.6,1-0.3,1.9-0.3,2.7c0,12.6,0,25.1,0,37.7c0,3.2-0.1,3.3-3.2,3.3   c-6,0-12,0-18-0.1C-14.5,251.7-14.5,211.7-14.5,171.7z M55.5,214.1c0-13.9-9.8-23.7-23.6-23.6c-13.9,0.1-23.4,9.8-23.4,23.7   c0,13.7,10,23.6,23.6,23.5C45.5,237.7,55.5,227.6,55.5,214.1z"/>
  <path class="st0" d="M113.1,139c0,38.7,0,77.4,0,116.1c0,3.4,0,3.4-3.5,3.4c-5.1,0-10.2,0-15.4,0.1c-2.1,0.1-2.9-0.8-2.8-2.8   c0.1-1.8,0-3.5,0-5.3c0-37.2,0-74.4,0-111.6C98.7,139,105.9,139,113.1,139z"/>
  <path class="st0" d="M246.3,274.8c2.7,0,5.4,0.1,8.2,0c1.5,0,2.5,0.5,2.6,2.1c0.4,7.7,8,14.5,17.5,15.7c6.3,0.8,12.3,0.1,17.7-3.5   c10.5-6.9,9.7-22.1-1.4-27.8c-3.6-1.9-7.5-2.7-11.6-2.7c-5.9-0.1-11.8-0.7-17.5-2.6c-11.2-3.8-19.3-11.1-23.2-22.3   c-5.1-14.6-4.7-29,3.9-42.3c7.5-11.7,18.9-17.3,32.6-18.3c7.4-0.5,14.7,0,21.4,3.8c1.2,0.7,1.8-0.1,2.4-0.9   c1.9-2.4,3.8-4.7,5.6-7.2c1-1.3,1.9-1.7,3.3-0.5c4.1,3.2,8.2,6.3,12.4,9.4c1.3,0.9,1.3,1.7,0.4,2.9c-2.3,2.8-4.4,5.7-6.7,8.5   c-1,1.3-1,2.2,0,3.6c9.4,13.3,9.6,27.3,3.1,41.8c-2.3,5.1-6.1,9-11,11.7c-1.6,0.9-1.6,1.3,0,2.2c12.4,7,16.2,17.8,14.8,31.5   c-2,19-16.5,30.2-34.1,32.5c-12.1,1.6-23.7,0.2-34.2-6.4c-10.8-6.7-16.2-16.7-16.9-29.3c-0.1-1.6,0.7-1.9,2.1-1.9   C240.6,274.8,243.4,274.8,246.3,274.8z M278.4,238.8c9,0,16.6-4.8,19.8-12.9c2.7-6.9,2.7-13.9-0.3-20.8   c-3.5-7.8-9.6-12.1-18.1-12.6s-15.3,2.9-19.7,10.4c-3.1,5.3-3.8,11.1-3,17.1C258.7,231.2,267.1,238.8,278.4,238.8z"/>
  <path class="st1" d="M175.1,174.1c12.5,0,25,0,37.4,0c7,0,11,4,11,11c0,8.7,0.1,17.4,0,26.2c-0.2,23.9-19,44.9-42.8,47.7   c-27,3.2-51.5-15.9-54.5-42.7c-0.5-4.4-0.2-8.9-0.2-13.4c0-6.2,0-12.5,0-18.7c0-6.1,3.9-10,10.1-10   C149.1,174,162.1,174.1,175.1,174.1z M174.6,193.7c-8.8,0-17.6,0.1-26.4,0c-2.2,0-2.9,0.7-2.9,2.9c0.1,4.4,0,8.8,0,13.2   c0.1,8.3,2.8,15.7,8.9,21.5c8.3,7.9,18.1,10.5,29,7.1s17.9-11,20.1-22.3c1.3-6.3,0.3-12.8,0.5-19.1c0.1-3.2-0.1-3.3-3.2-3.3   C192,193.7,183.3,193.7,174.6,193.7z"/>
  <path class="st1" d="M167.4,154.9c0,3.5,0,7,0,10.5c0,1.7-0.7,2.4-2.4,2.4c-5.2-0.1-10.4,0-15.6,0c-1.6,0-2.3-0.7-2.3-2.3   c0-7.1,0-14.2,0-21.3c0-1.6,0.7-2.3,2.3-2.3c5.3,0,10.5,0,15.8,0c1.5,0,2.1,0.7,2.1,2.2C167.3,147.7,167.4,151.3,167.4,154.9z"/>
  <path class="st1" d="M202.4,154.9c0,3.5,0,7,0,10.5c0,1.7-0.7,2.4-2.4,2.4c-5.2-0.1-10.4,0-15.6,0c-1.6,0-2.3-0.7-2.3-2.3   c0-7.1,0-14.2,0-21.3c0-1.6,0.7-2.3,2.3-2.3c5.3,0,10.5,0,15.8,0c1.5,0,2.1,0.7,2.1,2.2C202.4,147.7,202.4,151.3,202.4,154.9z"/>
</g>
</svg>